HIERARCHY
ROOT Hips
{
  OFFSET 0.557248 95.6966 -1.89756
  CHANNELS 6 Xposition Yposition Zposition Zrotation Xrotation Yrotation
  JOINT Spine
  {
    OFFSET -0.000355721 21.3001 -0.016921
    CHANNELS 3 Zrotation Xrotation Yrotation
    JOINT LeftArm
    {
      OFFSET 13.5181 21.3012 0
      CHANNELS 3 Zrotation Xrotation Yrotation
      JOINT LeftForeArm
      {
        OFFSET 24.5783 0 0
        CHANNELS 3 Zrotation Xrotation Yrotation
        JOINT LeftHand
        {
          OFFSET 24.5783 0 0
          CHANNELS 3 Zrotation Xrotation Yrotation
          End Site
          {
            OFFSET 7.32568 1.52588e-05 0.0169305
          }
        }
      }
    }
    JOINT Head
    {
      OFFSET 0 27.4458 -0.00489235
      CHANNELS 3 Zrotation Xrotation Yrotation
      End Site
      {
        OFFSET 0 0 0
      }
    }
    JOINT RightArm
    {
      OFFSET -13.5174 21.3012 0
      CHANNELS 3 Zrotation Xrotation Yrotation
      JOINT RightForeArm
      {
        OFFSET -24.5783 0 0
        CHANNELS 3 Zrotation Xrotation Yrotation
        JOINT RightHand
        {
          OFFSET -24.5783 0 0
          CHANNELS 3 Zrotation Xrotation Yrotation
          End Site
          {
            OFFSET -7.32568 1.52588e-05 0.0169305
          }
        }
      }
    }
  }
  JOINT RightUpLeg
  {
    OFFSET -8.44614 -9.41038 0.835684
    CHANNELS 3 Zrotation Xrotation Yrotation
    JOINT RightLeg
    {
      OFFSET 0 -40.9639 0
      CHANNELS 3 Zrotation Xrotation Yrotation
      JOINT RightFoot
      {
        OFFSET 0 -40.9639 0
        CHANNELS 3 Zrotation Xrotation Yrotation
        End Site
        {
          OFFSET 0.50614 -9.67405 14.6709
        }
      }
    }
  }
  JOINT LeftUpLeg
  {
    OFFSET 8.44614 -9.41038 0.835684
    CHANNELS 3 Zrotation Xrotation Yrotation
    JOINT LeftLeg
    {
      OFFSET 0 -40.9639 0
      CHANNELS 3 Zrotation Xrotation Yrotation
      JOINT LeftFoot
      {
        OFFSET 0 -40.9639 0
        CHANNELS 3 Zrotation Xrotation Yrotation
        End Site
        {
          OFFSET -0.50614 -9.67405 14.6709
        }
      }
    }
  }
}
MOTION
Frames:	19
Frame Time:	0.0333333
0.557248 95.6966 -1.89756 -3.35087 -6.25006 -2.9902 1.38341 1.77416 -0.269935 -81.5746 18.0671 5.43758 4.51759 21.0327 -11.4447 10.5128 -6.1161 -9.60508 7.5976 13.9162 1.62233 82.523 26.8465 -5.3592 0.762478 -1.89196 24.1455 -22.2478 -7.33527 12.8747 7.37975 -12.2299 -2.27759 0.193573 34.1542 2.31511 -6.06539 -15.6968 -0.868546 1.4219 -23.9279 3.48595 3.15494 66.9413 20.9056 -8.50428 -8.72179 -0.188238 
0.642146 95.9414 1.46988 -2.18616 -5.67789 -4.16168 0.983084 1.71797 -0.0795382 -83.3898 14.1621 8.02091 4.51006 23.174 -10.3794 8.81336 -5.9167 -8.38829 6.51933 16.2246 1.29576 80.112 29.9665 -3.50285 6.01229 -10.8867 29.1231 -20.5368 -7.7824 15.0982 5.61091 -10.5921 -2.77652 0.326077 34.3169 3.96098 -6.61995 -17.6834 -1.01901 -0.411912 -26.3763 2.03409 2.5125 58.1818 22.9488 -10.1695 -7.9709 -0.252209 
0.726076 96.2043 4.8549 -0.880316 -5.0904 -4.76104 0.496267 1.67395 -0.0114362 -84.8933 11.1073 10.5179 4.44702 25.017 -9.48381 7.09753 -5.77177 -7.53696 5.47501 18.5711 0.564167 77.659 32.3854 -2.27991 15.0314 -19.9124 37.933 -16.434 -8.16666 16.2267 3.97212 -8.57116 -3.01517 0.397649 33.9284 4.75456 -7.80489 -19.8242 -1.31435 -1.93932 -26.5623 0.72478 1.83205 45.7187 22.0292 -9.49144 -6.43006 -0.112237 
0.832835 96.4038 8.21384 0.230518 -4.78836 -5.32384 -0.063368 1.666 0.0297693 -86.0811 8.69881 13.0733 4.37499 26.3231 -8.86654 5.61947 -5.68899 -7.09799 4.5367 21.0421 -0.185099 75.7284 33.8921 -1.98958 28.5342 -25.6925 50.9983 -10.189 -8.56027 15.7681 2.51898 -6.25646 -2.93084 0.446754 33.3051 5.27528 -9.33348 -21.8335 -1.71553 -2.80909 -24.5705 0.224968 1.26601 30.584 18.457 -7.59075 -4.00349 0.0844099 
1.06561 96.4038 11.5832 0.817139 -4.81372 -6.78706 -0.47526 1.69169 0.169324 -86.9595 6.54416 15.6035 4.33303 26.9628 -8.57232 4.44762 -5.65026 -6.99832 3.66173 23.5108 -0.554334 74.616 34.7239 -2.30724 43.6478 -25.7939 65.0174 -2.59236 -9.02906 13.9492 1.27949 -4.03698 -2.6707 0.537495 33.2119 6.21695 -10.8207 -23.416 -2.05685 -2.81184 -22.0877 0.807268 0.792479 17.2375 14.3791 -6.17442 -2.24119 0.12939 
1.4299 96.2012 15.0988 1.07488 -4.87594 -9.09355 -0.710372 1.71371 0.420313 -87.6168 4.41548 17.7438 4.31712 27.091 -8.50014 3.28004 -5.61209 -7.00112 2.74764 25.6774 -0.559372 74.0721 35.3714 -2.45679 55.9176 -21.8094 75.4097 5.2869 -9.49902 11.712 -0.0708072 -2.20406 -2.47561 0.705852 33.9325 7.89149 -11.6051 -24.3649 -2.11129 -2.51858 -20.2315 1.99807 0.629226 9.02117 12.1546 -6.25172 0.314739 0.233323 
1.83873 95.855 18.9136 1.41888 -4.77273 -11.2178 -0.841475 1.69501 0.68104 -88.2226 2.52996 19.0708 4.30489 27.1742 -8.44853 1.68903 -5.53813 -6.83121 1.77529 27.4093 -0.74223 73.6864 35.9845 -2.09893 64.3117 -17.122 81.4068 12.6778 -9.73888 9.8365 -1.84236 -0.7974 -2.41938 0.900903 35.362 9.67895 -12.1067 -24.7453 -2.03517 -2.8869 -21.406 2.87273 0.614231 10.4295 12.0185 -4.33786 -1.02014 0.0677506 
2.23899 95.5687 22.9951 2.26955 -4.66933 -12.5406 -1.03074 1.63716 0.846723 -88.9189 1.28233 19.4167 4.3027 27.7984 -8.25767 -0.338963 -5.43002 -6.39175 0.800734 28.9664 -1.65584 73.3234 36.2885 -1.66901 70.1039 -13.4471 84.6269 19.1953 -9.59376 8.31607 -4.17404 0.291539 -2.20127 1.01822 37.2614 10.5426 -12.7396 -23.8754 -1.98757 -4.59222 -22.5697 2.61588 0.702963 15.0867 13.3096 0.487706 -0.988824 0.013031 
2.61004 95.5407 27.1498 3.76951 -4.88259 -13.1232 -1.39894 1.57828 0.910737 -89.6613 0.835754 18.9699 4.34461 29.1884 -7.95661 -2.19313 -5.32902 -5.9182 -0.1313 30.7502 -3.29625 73.1584 36.1103 -1.84466 74.7252 -10.8441 86.5782 24.6893 -9.24364 6.5688 -6.81268 1.09164 -1.3939 0.971971 39.3556 9.87255 -12.6037 -20.7381 -1.58729 -7.3791 -21.441 1.40047 0.809108 17.366 15.146 4.44384 -0.384782 0.0394195 
2.94863 95.7297 31.1948 5.49937 -5.49204 -13.2874 -1.85953 1.56061 0.938375 -90.2035 1.09964 18.0975 4.46445 30.7238 -7.79831 -3.09276 -5.2837 -5.85361 -0.97826 32.8421 -5.10574 73.3546 35.7382 -2.83717 79.2732 -8.80612 88.0125 29.1325 -9.10218 4.13164 -9.29699 1.29626 0.0824363 0.740235 42.8531 7.5024 -10.0159 -16.3657 -0.542282 -10.3519 -18.9391 0.446634 0.867466 17.949 16.6322 4.39883 1.47598 -0.035696 
3.2817 95.9257 35.0798 6.67226 -6.24559 -13.3417 -2.14908 1.60736 0.934769 -90.297 2.06376 17.0669 4.67182 31.0828 -8.10087 -2.73004 -5.31192 -6.47129 -1.65526 34.864 -6.48638 73.8154 35.6419 -4.26322 83.7487 -6.96763 88.7047 32.5556 -9.38474 1.13728 -10.9997 0.474008 1.60783 0.372877 47.9837 4.28329 -3.91114 -8.86695 0.729726 -12.6258 -16.2736 0.609562 0.875954 18.5128 17.2879 4.52191 0.888195 -0.0648791 
3.61977 95.9967 38.8311 6.90863 -6.82194 -13.3895 -2.1052 1.72024 0.81571 -89.8819 3.96293 15.872 4.86243 29.2424 -8.9664 -1.39772 -5.39412 -7.61656 -1.99767 36.3018 -7.31552 74.2554 35.952 -5.54911 88.3648 -5.10385 89.2335 35.0742 -9.88629 -1.80463 -11.6774 -1.77848 2.36275 -0.0976745 54.6671 0.849646 3.91696 0.497131 0.53695 -13.6466 -14.8688 1.58573 0.844042 21.4234 16.0605 4.37209 -3.04237 0.101207 
3.89956 95.7311 42.3318 6.61914 -7.04167 -13.2617 -1.87348 1.88025 0.546911 -89.0181 6.94397 14.2771 4.84054 25.5233 -10.1831 0.353028 -5.49905 -8.89817 -1.82589 36.9623 -7.96559 74.4202 36.3369 -6.34904 92.5194 -3.3434 89.5785 36.9035 -10.2939 -4.13547 -11.5837 -5.51833 2.08406 -0.715516 62.0142 -2.61864 9.55236 8.03587 -0.954635 -13.9974 -14.4402 2.48661 0.852972 25.8904 15.2463 4.05718 -7.73227 0.272828 
4.06441 95.4827 45.5692 6.48394 -6.94991 -12.8252 -1.82007 2.05277 0.232565 -87.6513 10.6221 12.0395 4.59959 21.5175 -11.4471 1.96456 -5.60473 -10.1278 -1.11941 37.132 -8.83343 74.2981 36.3688 -6.69581 95.6135 -1.82017 89.7799 38.1968 -10.6016 -5.73066 -11.1141 -10.2753 1.31746 -1.56562 68.5578 -5.79262 10.1636 10.5819 -1.49655 -14.3867 -13.5932 2.85145 0.868895 28.7999 14.7061 3.83708 -11.532 0.420894 
4.05928 95.5773 48.6151 6.01738 -6.59919 -12.3014 -1.86277 2.15147 -0.0484616 -84.9814 13.2515 9.15429 4.67095 20.1034 -12.5507 3.11973 -5.75428 -11.4677 0.150369 37.6755 -9.99809 74.5873 35.7505 -6.97999 95.5609 -1.06104 89.8921 38.157 -10.9414 -5.95577 -9.46617 -14.7275 1.73255 -1.87352 69.632 -7.90867 8.67117 7.32843 -1.16867 -14.0749 -11.6107 3.34447 0.811197 28.8089 13.7741 3.96071 -13.726 0.552515 
4.03482 95.7093 51.6345 5.51472 -6.21378 -11.7743 -1.92987 2.24218 -0.324447 -82.1237 15.744 5.96766 4.76427 19.05 -13.6335 4.14204 -5.89588 -12.8368 1.52632 38.2655 -11.2307 74.9117 35.0502 -7.24661 93.5754 -0.784871 89.7899 38.0146 -11.3092 -6.06278 -7.53135 -19.2282 2.36848 -2.34519 70.222 -9.72914 6.88134 3.14391 -0.722308 -13.7361 -9.52102 3.83869 0.700358 28.5024 12.8444 4.13361 -15.7609 0.687268 
3.99214 95.8908 54.6435 4.93959 -5.80174 -11.2235 -1.9713 2.32217 -0.599383 -79.1889 18.0264 2.6222 4.84867 18.1514 -14.6746 5.29336 -6.0608 -14.1786 2.98689 38.8025 -12.4934 75.2997 34.293 -7.53746 91.7859 -0.379502 89.5864 37.5771 -11.6193 -5.89454 -5.42285 -23.3853 3.1284 -2.65644 69.5976 -11.4129 5.1917 -1.0215 -0.265892 -13.299 -7.21195 4.36784 0.604702 27.7091 11.7738 4.35973 -17.5098 0.815658 
3.93181 96.1341 57.6582 4.25524 -5.37105 -10.6291 -1.93702 2.38862 -0.877248 -76.2856 20.0349 -0.705915 4.87831 17.2051 -15.6513 6.8334 -6.28044 -15.4369 4.49674 39.19 -13.7397 75.7802 33.5035 -7.89479 89.61 0.00460346 89.5391 36.6538 -11.7854 -5.29343 -3.31571 -26.8197 3.88626 -2.67042 67.0397 -12.9604 3.94575 -4.22351 0.0989121 -12.7012 -4.56982 4.96608 0.561906 26.2457 10.4346 4.64145 -18.8437 0.926433 
3.81293 96.6093 60.6583 3.20166 -4.85024 -9.86356 -1.6902 2.41682 -1.1826 -73.3626 21.2986 -3.69488 4.78798 16.1402 -16.3532 9.78715 -6.70195 -16.4527 6.16678 39.2594 -14.9275 76.6136 32.5837 -8.41251 86.7466 0.537637 89.5716 34.2792 -11.4241 -3.26343 -1.38664 -28.4333 4.7374 -1.43534 58.7345 -15.0666 3.61656 -5.07945 0.255239 -11.515 -0.724079 5.8158 0.52322 22.3193 8.22063 5.15276 -18.9781 0.988062 
